<?xml version="1.0" encoding="UTF-8" standalone="no"?>
<!DOCTYPE svg PUBLIC "-//W3C//DTD SVG 1.1//EN"
 "http://www.w3.org/Graphics/SVG/1.1/DTD/svg11.dtd">
<!-- Generated by graphviz version 2.38.0 (20140413.2041)
 -->
<!-- Title: G Pages: 1 -->
<svg width="797pt" height="221pt"
 viewBox="0.00 0.00 797.00 221.00" xmlns="http://www.w3.org/2000/svg" xmlns:xlink="http://www.w3.org/1999/xlink">
<g id="graph0" class="graph" transform="scale(1 1) rotate(0) translate(4 217)">
<title>G</title>
<polygon fill="white" stroke="none" points="-4,4 -4,-217 793.003,-217 793.003,4 -4,4"/>
<!-- 140696420774464 -->
<g id="node1" class="node"><title>140696420774464</title>
<polygon fill="none" stroke="black" points="0,-166.5 0,-212.5 291,-212.5 291,-166.5 0,-166.5"/>
<text text-anchor="middle" x="62.5" y="-185.8" font-family="Times,serif" font-size="14.00">input_4: InputLayer</text>
<polyline fill="none" stroke="black" points="125,-166.5 125,-212.5 "/>
<text text-anchor="middle" x="152.5" y="-197.3" font-family="Times,serif" font-size="14.00">input:</text>
<polyline fill="none" stroke="black" points="125,-189.5 180,-189.5 "/>
<text text-anchor="middle" x="152.5" y="-174.3" font-family="Times,serif" font-size="14.00">output:</text>
<polyline fill="none" stroke="black" points="180,-166.5 180,-212.5 "/>
<text text-anchor="middle" x="235.5" y="-197.3" font-family="Times,serif" font-size="14.00">(None, 48, 48, 1)</text>
<polyline fill="none" stroke="black" points="180,-189.5 291,-189.5 "/>
<text text-anchor="middle" x="235.5" y="-174.3" font-family="Times,serif" font-size="14.00">(None, 48, 48, 1)</text>
</g>
<!-- 140696420830008 -->
<g id="node3" class="node"><title>140696420830008</title>
<polygon fill="none" stroke="black" points="163,-83.5 163,-129.5 770,-129.5 770,-83.5 163,-83.5"/>
<text text-anchor="middle" x="328" y="-102.8" font-family="Times,serif" font-size="14.00">random_weighted_average_1: RandomWeightedAverage</text>
<polyline fill="none" stroke="black" points="493,-83.5 493,-129.5 "/>
<text text-anchor="middle" x="520.5" y="-114.3" font-family="Times,serif" font-size="14.00">input:</text>
<polyline fill="none" stroke="black" points="493,-106.5 548,-106.5 "/>
<text text-anchor="middle" x="520.5" y="-91.3" font-family="Times,serif" font-size="14.00">output:</text>
<polyline fill="none" stroke="black" points="548,-83.5 548,-129.5 "/>
<text text-anchor="middle" x="659" y="-114.3" font-family="Times,serif" font-size="14.00">[(None, 48, 48, 1), (None, 48, 48, 1)]</text>
<polyline fill="none" stroke="black" points="548,-106.5 770,-106.5 "/>
<text text-anchor="middle" x="659" y="-91.3" font-family="Times,serif" font-size="14.00">(None, 48, 48, 1)</text>
</g>
<!-- 140696420774464&#45;&gt;140696420830008 -->
<g id="edge1" class="edge"><title>140696420774464&#45;&gt;140696420830008</title>
<path fill="none" stroke="black" d="M232.791,-166.473C275.078,-155.803 325.993,-142.955 369.492,-131.979"/>
<polygon fill="black" stroke="black" points="370.387,-135.363 379.227,-129.522 368.674,-128.575 370.387,-135.363"/>
</g>
<!-- 140696420774520 -->
<g id="node4" class="node"><title>140696420774520</title>
<polygon fill="none" stroke="black" points="329.5,-0.5 329.5,-46.5 603.5,-46.5 603.5,-0.5 329.5,-0.5"/>
<text text-anchor="middle" x="383.5" y="-19.8" font-family="Times,serif" font-size="14.00">model_3: Model</text>
<polyline fill="none" stroke="black" points="437.5,-0.5 437.5,-46.5 "/>
<text text-anchor="middle" x="465" y="-31.3" font-family="Times,serif" font-size="14.00">input:</text>
<polyline fill="none" stroke="black" points="437.5,-23.5 492.5,-23.5 "/>
<text text-anchor="middle" x="465" y="-8.3" font-family="Times,serif" font-size="14.00">output:</text>
<polyline fill="none" stroke="black" points="492.5,-0.5 492.5,-46.5 "/>
<text text-anchor="middle" x="548" y="-31.3" font-family="Times,serif" font-size="14.00">(None, 48, 48, 1)</text>
<polyline fill="none" stroke="black" points="492.5,-23.5 603.5,-23.5 "/>
<text text-anchor="middle" x="548" y="-8.3" font-family="Times,serif" font-size="14.00">(None, 2)</text>
</g>
<!-- 140696420774464&#45;&gt;140696420774520 -->
<g id="edge3" class="edge"><title>140696420774464&#45;&gt;140696420774520</title>
<path fill="none" stroke="black" d="M140.066,-166.108C135.764,-142.419 133.392,-105.431 153.5,-83 176.185,-57.6947 249.281,-43.2024 319.131,-34.9739"/>
<polygon fill="black" stroke="black" points="319.867,-38.4129 329.407,-33.8047 319.075,-31.4577 319.867,-38.4129"/>
</g>
<!-- 140696420830680 -->
<g id="node2" class="node"><title>140696420830680</title>
<polygon fill="none" stroke="black" points="487,-166.5 487,-212.5 778,-212.5 778,-166.5 487,-166.5"/>
<text text-anchor="middle" x="549.5" y="-185.8" font-family="Times,serif" font-size="14.00">input_5: InputLayer</text>
<polyline fill="none" stroke="black" points="612,-166.5 612,-212.5 "/>
<text text-anchor="middle" x="639.5" y="-197.3" font-family="Times,serif" font-size="14.00">input:</text>
<polyline fill="none" stroke="black" points="612,-189.5 667,-189.5 "/>
<text text-anchor="middle" x="639.5" y="-174.3" font-family="Times,serif" font-size="14.00">output:</text>
<polyline fill="none" stroke="black" points="667,-166.5 667,-212.5 "/>
<text text-anchor="middle" x="722.5" y="-197.3" font-family="Times,serif" font-size="14.00">(None, 48, 48, 1)</text>
<polyline fill="none" stroke="black" points="667,-189.5 778,-189.5 "/>
<text text-anchor="middle" x="722.5" y="-174.3" font-family="Times,serif" font-size="14.00">(None, 48, 48, 1)</text>
</g>
<!-- 140696420830680&#45;&gt;140696420830008 -->
<g id="edge2" class="edge"><title>140696420830680&#45;&gt;140696420830008</title>
<path fill="none" stroke="black" d="M587.14,-166.366C566.645,-156.366 542.265,-144.47 520.804,-133.998"/>
<polygon fill="black" stroke="black" points="522.327,-130.847 511.805,-129.607 519.258,-137.138 522.327,-130.847"/>
</g>
<!-- 140696420830680&#45;&gt;140696420774520 -->
<g id="edge4" class="edge"><title>140696420830680&#45;&gt;140696420774520</title>
<path fill="none" stroke="black" d="M734.325,-166.467C752.142,-157.99 768.475,-146.253 779.5,-130 791.226,-112.713 792.845,-99.0703 779.5,-83 757.746,-56.8038 684.448,-42.2729 614.251,-34.2465"/>
<polygon fill="black" stroke="black" points="614.246,-30.7248 603.923,-33.1088 613.479,-37.6828 614.246,-30.7248"/>
</g>
<!-- 140696420830008&#45;&gt;140696420774520 -->
<g id="edge5" class="edge"><title>140696420830008&#45;&gt;140696420774520</title>
<path fill="none" stroke="black" d="M466.5,-83.3664C466.5,-75.1516 466.5,-65.6579 466.5,-56.7252"/>
<polygon fill="black" stroke="black" points="470,-56.6068 466.5,-46.6068 463,-56.6069 470,-56.6068"/>
</g>
</g>
</svg>
