<?xml version="1.0" encoding="UTF-8" standalone="no"?>
<!DOCTYPE svg PUBLIC "-//W3C//DTD SVG 1.1//EN"
 "http://www.w3.org/Graphics/SVG/1.1/DTD/svg11.dtd">
<!-- Generated by graphviz version 2.38.0 (20140413.2041)
 -->
<!-- Title: G Pages: 1 -->
<svg width="282pt" height="138pt"
 viewBox="0.00 0.00 282.00 138.00" xmlns="http://www.w3.org/2000/svg" xmlns:xlink="http://www.w3.org/1999/xlink">
<g id="graph0" class="graph" transform="scale(1 1) rotate(0) translate(4 134)">
<title>G</title>
<polygon fill="white" stroke="none" points="-4,4 -4,-134 278,-134 278,4 -4,4"/>
<!-- 140696425624240 -->
<g id="node1" class="node"><title>140696425624240</title>
<polygon fill="none" stroke="black" points="5.5,-83.5 5.5,-129.5 268.5,-129.5 268.5,-83.5 5.5,-83.5"/>
<text text-anchor="middle" x="68" y="-102.8" font-family="Times,serif" font-size="14.00">input_2: InputLayer</text>
<polyline fill="none" stroke="black" points="130.5,-83.5 130.5,-129.5 "/>
<text text-anchor="middle" x="158" y="-114.3" font-family="Times,serif" font-size="14.00">input:</text>
<polyline fill="none" stroke="black" points="130.5,-106.5 185.5,-106.5 "/>
<text text-anchor="middle" x="158" y="-91.3" font-family="Times,serif" font-size="14.00">output:</text>
<polyline fill="none" stroke="black" points="185.5,-83.5 185.5,-129.5 "/>
<text text-anchor="middle" x="227" y="-114.3" font-family="Times,serif" font-size="14.00">(None, 100)</text>
<polyline fill="none" stroke="black" points="185.5,-106.5 268.5,-106.5 "/>
<text text-anchor="middle" x="227" y="-91.3" font-family="Times,serif" font-size="14.00">(None, 100)</text>
</g>
<!-- 140696425492320 -->
<g id="node2" class="node"><title>140696425492320</title>
<polygon fill="none" stroke="black" points="0,-0.5 0,-46.5 274,-46.5 274,-0.5 0,-0.5"/>
<text text-anchor="middle" x="54" y="-19.8" font-family="Times,serif" font-size="14.00">model_1: Model</text>
<polyline fill="none" stroke="black" points="108,-0.5 108,-46.5 "/>
<text text-anchor="middle" x="135.5" y="-31.3" font-family="Times,serif" font-size="14.00">input:</text>
<polyline fill="none" stroke="black" points="108,-23.5 163,-23.5 "/>
<text text-anchor="middle" x="135.5" y="-8.3" font-family="Times,serif" font-size="14.00">output:</text>
<polyline fill="none" stroke="black" points="163,-0.5 163,-46.5 "/>
<text text-anchor="middle" x="218.5" y="-31.3" font-family="Times,serif" font-size="14.00">(None, 100)</text>
<polyline fill="none" stroke="black" points="163,-23.5 274,-23.5 "/>
<text text-anchor="middle" x="218.5" y="-8.3" font-family="Times,serif" font-size="14.00">(None, 48, 48, 1)</text>
</g>
<!-- 140696425624240&#45;&gt;140696425492320 -->
<g id="edge1" class="edge"><title>140696425624240&#45;&gt;140696425492320</title>
<path fill="none" stroke="black" d="M137,-83.3664C137,-75.1516 137,-65.6579 137,-56.7252"/>
<polygon fill="black" stroke="black" points="140.5,-56.6068 137,-46.6068 133.5,-56.6069 140.5,-56.6068"/>
</g>
</g>
</svg>
