<?xml version="1.0" encoding="UTF-8" standalone="no"?>
<!DOCTYPE svg PUBLIC "-//W3C//DTD SVG 1.1//EN"
 "http://www.w3.org/Graphics/SVG/1.1/DTD/svg11.dtd">
<!-- Generated by graphviz version 2.38.0 (20140413.2041)
 -->
<!-- Title: G Pages: 1 -->
<svg width="548pt" height="304pt"
 viewBox="0.00 0.00 548.00 304.00" xmlns="http://www.w3.org/2000/svg" xmlns:xlink="http://www.w3.org/1999/xlink">
<g id="graph0" class="graph" transform="scale(1 1) rotate(0) translate(4 300)">
<title>G</title>
<polygon fill="white" stroke="none" points="-4,4 -4,-300 544,-300 544,4 -4,4"/>
<!-- 139990503468952 -->
<g id="node1" class="node"><title>139990503468952</title>
<polygon fill="none" stroke="black" points="138,-249.5 138,-295.5 401,-295.5 401,-249.5 138,-249.5"/>
<text text-anchor="middle" x="200.5" y="-268.8" font-family="Times,serif" font-size="14.00">input_6: InputLayer</text>
<polyline fill="none" stroke="black" points="263,-249.5 263,-295.5 "/>
<text text-anchor="middle" x="290.5" y="-280.3" font-family="Times,serif" font-size="14.00">input:</text>
<polyline fill="none" stroke="black" points="263,-272.5 318,-272.5 "/>
<text text-anchor="middle" x="290.5" y="-257.3" font-family="Times,serif" font-size="14.00">output:</text>
<polyline fill="none" stroke="black" points="318,-249.5 318,-295.5 "/>
<text text-anchor="middle" x="359.5" y="-280.3" font-family="Times,serif" font-size="14.00">(None, 100)</text>
<polyline fill="none" stroke="black" points="318,-272.5 401,-272.5 "/>
<text text-anchor="middle" x="359.5" y="-257.3" font-family="Times,serif" font-size="14.00">(None, 100)</text>
</g>
<!-- 139984199357888 -->
<g id="node2" class="node"><title>139984199357888</title>
<polygon fill="none" stroke="black" points="0,-166.5 0,-212.5 261,-212.5 261,-166.5 0,-166.5"/>
<text text-anchor="middle" x="61.5" y="-185.8" font-family="Times,serif" font-size="14.00">lambda_4: Lambda</text>
<polyline fill="none" stroke="black" points="123,-166.5 123,-212.5 "/>
<text text-anchor="middle" x="150.5" y="-197.3" font-family="Times,serif" font-size="14.00">input:</text>
<polyline fill="none" stroke="black" points="123,-189.5 178,-189.5 "/>
<text text-anchor="middle" x="150.5" y="-174.3" font-family="Times,serif" font-size="14.00">output:</text>
<polyline fill="none" stroke="black" points="178,-166.5 178,-212.5 "/>
<text text-anchor="middle" x="219.5" y="-197.3" font-family="Times,serif" font-size="14.00">(None, 100)</text>
<polyline fill="none" stroke="black" points="178,-189.5 261,-189.5 "/>
<text text-anchor="middle" x="219.5" y="-174.3" font-family="Times,serif" font-size="14.00">(None, 100)</text>
</g>
<!-- 139990503468952&#45;&gt;139984199357888 -->
<g id="edge1" class="edge"><title>139990503468952&#45;&gt;139984199357888</title>
<path fill="none" stroke="black" d="M231.518,-249.366C214.816,-239.634 195.033,-228.106 177.421,-217.842"/>
<polygon fill="black" stroke="black" points="178.839,-214.618 168.436,-212.607 175.314,-220.666 178.839,-214.618"/>
</g>
<!-- 139984199302000 -->
<g id="node3" class="node"><title>139984199302000</title>
<polygon fill="none" stroke="black" points="279,-166.5 279,-212.5 540,-212.5 540,-166.5 279,-166.5"/>
<text text-anchor="middle" x="340.5" y="-185.8" font-family="Times,serif" font-size="14.00">lambda_5: Lambda</text>
<polyline fill="none" stroke="black" points="402,-166.5 402,-212.5 "/>
<text text-anchor="middle" x="429.5" y="-197.3" font-family="Times,serif" font-size="14.00">input:</text>
<polyline fill="none" stroke="black" points="402,-189.5 457,-189.5 "/>
<text text-anchor="middle" x="429.5" y="-174.3" font-family="Times,serif" font-size="14.00">output:</text>
<polyline fill="none" stroke="black" points="457,-166.5 457,-212.5 "/>
<text text-anchor="middle" x="498.5" y="-197.3" font-family="Times,serif" font-size="14.00">(None, 100)</text>
<polyline fill="none" stroke="black" points="457,-189.5 540,-189.5 "/>
<text text-anchor="middle" x="498.5" y="-174.3" font-family="Times,serif" font-size="14.00">(None, 100)</text>
</g>
<!-- 139990503468952&#45;&gt;139984199302000 -->
<g id="edge2" class="edge"><title>139990503468952&#45;&gt;139984199302000</title>
<path fill="none" stroke="black" d="M307.756,-249.366C324.578,-239.634 344.503,-228.106 362.242,-217.842"/>
<polygon fill="black" stroke="black" points="364.388,-220.644 371.291,-212.607 360.882,-214.585 364.388,-220.644"/>
</g>
<!-- 139990505506128 -->
<g id="node4" class="node"><title>139990505506128</title>
<polygon fill="none" stroke="black" points="146.5,-83.5 146.5,-129.5 392.5,-129.5 392.5,-83.5 146.5,-83.5"/>
<text text-anchor="middle" x="200.5" y="-102.8" font-family="Times,serif" font-size="14.00">model_6: Model</text>
<polyline fill="none" stroke="black" points="254.5,-83.5 254.5,-129.5 "/>
<text text-anchor="middle" x="282" y="-114.3" font-family="Times,serif" font-size="14.00">input:</text>
<polyline fill="none" stroke="black" points="254.5,-106.5 309.5,-106.5 "/>
<text text-anchor="middle" x="282" y="-91.3" font-family="Times,serif" font-size="14.00">output:</text>
<polyline fill="none" stroke="black" points="309.5,-83.5 309.5,-129.5 "/>
<text text-anchor="middle" x="351" y="-114.3" font-family="Times,serif" font-size="14.00">(None, 100)</text>
<polyline fill="none" stroke="black" points="309.5,-106.5 392.5,-106.5 "/>
<text text-anchor="middle" x="351" y="-91.3" font-family="Times,serif" font-size="14.00">(None, 2)</text>
</g>
<!-- 139984199357888&#45;&gt;139990505506128 -->
<g id="edge3" class="edge"><title>139984199357888&#45;&gt;139990505506128</title>
<path fill="none" stroke="black" d="M168.482,-166.366C185.184,-156.634 204.967,-145.106 222.579,-134.842"/>
<polygon fill="black" stroke="black" points="224.686,-137.666 231.564,-129.607 221.161,-131.618 224.686,-137.666"/>
</g>
<!-- 139984199302000&#45;&gt;139990505506128 -->
<g id="edge4" class="edge"><title>139984199302000&#45;&gt;139990505506128</title>
<path fill="none" stroke="black" d="M371.244,-166.366C354.422,-156.634 334.497,-145.106 316.758,-134.842"/>
<polygon fill="black" stroke="black" points="318.118,-131.585 307.709,-129.607 314.612,-137.644 318.118,-131.585"/>
</g>
<!-- 139984199499280 -->
<g id="node5" class="node"><title>139984199499280</title>
<polygon fill="none" stroke="black" points="103.5,-0.5 103.5,-46.5 435.5,-46.5 435.5,-0.5 103.5,-0.5"/>
<text text-anchor="middle" x="173" y="-19.8" font-family="Times,serif" font-size="14.00">model_4: Concatenate</text>
<polyline fill="none" stroke="black" points="242.5,-0.5 242.5,-46.5 "/>
<text text-anchor="middle" x="270" y="-31.3" font-family="Times,serif" font-size="14.00">input:</text>
<polyline fill="none" stroke="black" points="242.5,-23.5 297.5,-23.5 "/>
<text text-anchor="middle" x="270" y="-8.3" font-family="Times,serif" font-size="14.00">output:</text>
<polyline fill="none" stroke="black" points="297.5,-0.5 297.5,-46.5 "/>
<text text-anchor="middle" x="366.5" y="-31.3" font-family="Times,serif" font-size="14.00">[(None, 2), (None, 2)]</text>
<polyline fill="none" stroke="black" points="297.5,-23.5 435.5,-23.5 "/>
<text text-anchor="middle" x="366.5" y="-8.3" font-family="Times,serif" font-size="14.00">(None, 2)</text>
</g>
<!-- 139990505506128&#45;&gt;139984199499280 -->
<g id="edge5" class="edge"><title>139990505506128&#45;&gt;139984199499280</title>
<path fill="none" stroke="black" d="M269.5,-83.3664C269.5,-75.1516 269.5,-65.6579 269.5,-56.7252"/>
<polygon fill="black" stroke="black" points="273,-56.6068 269.5,-46.6068 266,-56.6069 273,-56.6068"/>
</g>
</g>
</svg>
