<?xml version="1.0" encoding="UTF-8" standalone="no"?>
<!DOCTYPE svg PUBLIC "-//W3C//DTD SVG 1.1//EN"
 "http://www.w3.org/Graphics/SVG/1.1/DTD/svg11.dtd">
<!-- Generated by graphviz version 2.38.0 (20140413.2041)
 -->
<!-- Title: G Pages: 1 -->
<svg width="608pt" height="138pt"
 viewBox="0.00 0.00 608.00 138.00" xmlns="http://www.w3.org/2000/svg" xmlns:xlink="http://www.w3.org/1999/xlink">
<g id="graph0" class="graph" transform="scale(1 1) rotate(0) translate(4 134)">
<title>G</title>
<polygon fill="white" stroke="none" points="-4,4 -4,-134 604,-134 604,4 -4,4"/>
<!-- 140269273126840 -->
<g id="node1" class="node"><title>140269273126840</title>
<polygon fill="none" stroke="black" points="0,-83.5 0,-129.5 291,-129.5 291,-83.5 0,-83.5"/>
<text text-anchor="middle" x="62.5" y="-102.8" font-family="Times,serif" font-size="14.00">input_4: InputLayer</text>
<polyline fill="none" stroke="black" points="125,-83.5 125,-129.5 "/>
<text text-anchor="middle" x="152.5" y="-114.3" font-family="Times,serif" font-size="14.00">input:</text>
<polyline fill="none" stroke="black" points="125,-106.5 180,-106.5 "/>
<text text-anchor="middle" x="152.5" y="-91.3" font-family="Times,serif" font-size="14.00">output:</text>
<polyline fill="none" stroke="black" points="180,-83.5 180,-129.5 "/>
<text text-anchor="middle" x="235.5" y="-114.3" font-family="Times,serif" font-size="14.00">(None, 48, 48, 1)</text>
<polyline fill="none" stroke="black" points="180,-106.5 291,-106.5 "/>
<text text-anchor="middle" x="235.5" y="-91.3" font-family="Times,serif" font-size="14.00">(None, 48, 48, 1)</text>
</g>
<!-- 140269273431736 -->
<g id="node3" class="node"><title>140269273431736</title>
<polygon fill="none" stroke="black" points="162.5,-0.5 162.5,-46.5 436.5,-46.5 436.5,-0.5 162.5,-0.5"/>
<text text-anchor="middle" x="216.5" y="-19.8" font-family="Times,serif" font-size="14.00">model_3: Model</text>
<polyline fill="none" stroke="black" points="270.5,-0.5 270.5,-46.5 "/>
<text text-anchor="middle" x="298" y="-31.3" font-family="Times,serif" font-size="14.00">input:</text>
<polyline fill="none" stroke="black" points="270.5,-23.5 325.5,-23.5 "/>
<text text-anchor="middle" x="298" y="-8.3" font-family="Times,serif" font-size="14.00">output:</text>
<polyline fill="none" stroke="black" points="325.5,-0.5 325.5,-46.5 "/>
<text text-anchor="middle" x="381" y="-31.3" font-family="Times,serif" font-size="14.00">(None, 48, 48, 1)</text>
<polyline fill="none" stroke="black" points="325.5,-23.5 436.5,-23.5 "/>
<text text-anchor="middle" x="381" y="-8.3" font-family="Times,serif" font-size="14.00">(None, 2)</text>
</g>
<!-- 140269273126840&#45;&gt;140269273431736 -->
<g id="edge1" class="edge"><title>140269273126840&#45;&gt;140269273431736</title>
<path fill="none" stroke="black" d="M187.581,-83.3664C206.425,-73.4551 228.808,-61.682 248.587,-51.2787"/>
<polygon fill="black" stroke="black" points="250.249,-54.3596 257.47,-46.6068 246.99,-48.1643 250.249,-54.3596"/>
</g>
<!-- 140269273128016 -->
<g id="node2" class="node"><title>140269273128016</title>
<polygon fill="none" stroke="black" points="309,-83.5 309,-129.5 600,-129.5 600,-83.5 309,-83.5"/>
<text text-anchor="middle" x="371.5" y="-102.8" font-family="Times,serif" font-size="14.00">input_5: InputLayer</text>
<polyline fill="none" stroke="black" points="434,-83.5 434,-129.5 "/>
<text text-anchor="middle" x="461.5" y="-114.3" font-family="Times,serif" font-size="14.00">input:</text>
<polyline fill="none" stroke="black" points="434,-106.5 489,-106.5 "/>
<text text-anchor="middle" x="461.5" y="-91.3" font-family="Times,serif" font-size="14.00">output:</text>
<polyline fill="none" stroke="black" points="489,-83.5 489,-129.5 "/>
<text text-anchor="middle" x="544.5" y="-114.3" font-family="Times,serif" font-size="14.00">(None, 48, 48, 1)</text>
<polyline fill="none" stroke="black" points="489,-106.5 600,-106.5 "/>
<text text-anchor="middle" x="544.5" y="-91.3" font-family="Times,serif" font-size="14.00">(None, 48, 48, 1)</text>
</g>
<!-- 140269273128016&#45;&gt;140269273431736 -->
<g id="edge2" class="edge"><title>140269273128016&#45;&gt;140269273431736</title>
<path fill="none" stroke="black" d="M412.146,-83.3664C393.18,-73.4551 370.651,-61.682 350.743,-51.2787"/>
<polygon fill="black" stroke="black" points="352.287,-48.1364 341.803,-46.6068 349.045,-54.3404 352.287,-48.1364"/>
</g>
</g>
</svg>
